<svg width="439" height="439" viewBox="0 0 439 439" fill="none" xmlns="http://www.w3.org/2000/svg">
<path d="M409.133 109.203C389.525 75.611 362.928 49.014 329.335 29.407C295.736 9.801 259.058 0 219.273 0C179.492 0 142.803 9.801 109.21 29.407C75.615 49.011 49.018 75.608 29.41 109.203C9.801 142.8 0 179.489 0 219.267C0 259.047 9.804 295.73 29.407 329.329C49.014 362.921 75.611 389.518 109.206 409.127C142.803 428.732 179.489 438.534 219.269 438.534C259.049 438.534 295.739 428.732 329.334 409.127C362.927 389.525 389.523 362.921 409.129 329.329C428.732 295.733 438.532 259.045 438.532 219.267C438.533 179.485 428.732 142.795 409.133 109.203ZM353.742 297.208C339.848 320.999 321.006 339.841 297.215 353.742C273.424 367.636 247.444 374.576 219.27 374.576C191.103 374.576 165.121 367.636 141.327 353.742C117.536 339.841 98.694 320.999 84.8 297.208C70.903 273.417 63.957 247.436 63.957 219.267C63.957 191.096 70.906 165.115 84.8 141.324C98.691 117.533 117.538 98.687 141.327 84.794C165.118 70.899 191.099 63.954 219.27 63.954C247.443 63.954 273.424 70.899 297.215 84.794C321.006 98.688 339.849 117.533 353.742 141.324C367.637 165.115 374.58 191.096 374.58 219.267C374.58 247.436 367.637 273.417 353.742 297.208Z" fill="#DC01F2"/>
</svg>
